<?xml version="1.0" encoding="UTF-8" standalone="no"?>
<!-- Created with Inkscape (http://www.inkscape.org/) -->

<svg
   width="129mm"
   height="142mm"
   viewBox="0 0 129 142"
   version="1.1"
   id="svg5544"
   inkscape:version="1.1 (c68e22c387, 2021-05-23)"
   sodipodi:docname="Lyre-Bliss-Relaxation.svg"
   xmlns:inkscape="http://www.inkscape.org/namespaces/inkscape"
   xmlns:sodipodi="http://sodipodi.sourceforge.net/DTD/sodipodi-0.dtd"
   xmlns="http://www.w3.org/2000/svg"
   xmlns:svg="http://www.w3.org/2000/svg">
  <sodipodi:namedview
     id="namedview5546"
     pagecolor="#505050"
     bordercolor="#eeeeee"
     borderopacity="1"
     inkscape:pageshadow="0"
     inkscape:pageopacity="0"
     inkscape:pagecheckerboard="0"
     inkscape:document-units="mm"
     showgrid="false"
     inkscape:zoom="0.77771465"
     inkscape:cx="329.81248"
     inkscape:cy="280.95138"
     inkscape:window-width="2560"
     inkscape:window-height="1377"
     inkscape:window-x="-8"
     inkscape:window-y="-8"
     inkscape:window-maximized="1"
     inkscape:current-layer="layer1" />
  <defs
     id="defs5541" />
  <g
     inkscape:label="Calque 1"
     inkscape:groupmode="layer"
     id="layer1">
    <path
       style="fill:#ffffff;fill-opacity:1;stroke-width:0.264583"
       d="m 22.664905,133.64012 v -5.36641 l 0.263203,-1.79524 c 0.159025,-1.08467 1.326547,-2.21701 2.16993,-2.61843 l 0.847332,-0.40331 1.001425,-0.19291 5.06895,-0.15011 c 2.78793,-0.0826 4.89036,-0.17295 4.67208,-0.20086 -0.93375,-0.11943 -6.44695,-3.02729 -9.12812,-4.81451 -3.79961,-2.53275 -9.1203,-7.79456 -11.48558,-11.35849 -5.54677,-8.357669 -8.2280202,-17.904219 -8.2891902,-29.513529 -0.0256,-4.856065 0.32056,-7.513214 1.54698,-11.875175 1.7742302,-6.310375 3.9840302,-11.458646 9.8936902,-23.049821 5.96175,-11.693345 7.62978,-15.937051 7.32769,-18.642684 -0.28285,-2.533219 -1.95622,-2.695921 -8.25401,-0.802537 -3.16299,0.95093 -4.05206,1.113745 -6.08542,1.114419 -6.1981102,0.0021 -9.9335902,-3.754429 -9.9445702,-10.000476 -0.006,-3.640677 1.4239,-6.4494369 4.25302,-8.3518759 1.86308,-1.252829 2.80538,-1.538444 5.6915502,-1.72513 5.06415,-0.327564 11.54126,0.901301 15.66613,2.972242 5.73789,2.880777 9.54626,8.3924449 10.08461,14.5949579 0.16065,1.850828 0.19161,1.627935 0.31072,-2.236838 0.11911,-3.864804 0.18597,-4.346151 0.67106,-4.830899 1.20387,-1.203031 3.44009,-1.1048 4.2885,0.188382 0.38569,0.587881 0.47939,1.461097 0.55285,5.152167 l 0.0884,4.444314 h 4.99263 4.99263 l 0.0783,-7.165837 0.0783,-7.1658379 0.86407,-0.771663 c 1.16755,-1.042688 2.39597,-1.042694 3.56353,-1.7e-5 l 0.86407,0.771645 0.0819,7.1658559 0.0819,7.165854 h 4.99552 4.99552 l 0.0819,-7.165854 0.0819,-7.1658559 0.86407,-0.771645 c 1.16757,-1.042677 2.39598,-1.042671 3.56353,1.7e-5 l 0.86407,0.771663 0.0783,7.1658379 0.0783,7.165837 h 4.99263 4.99264 l 0.0884,-4.444314 c 0.0735,-3.69107 0.16715,-4.564286 0.55284,-5.152167 0.84843,-1.293204 3.08468,-1.391413 4.2885,-0.188337 0.483222,0.482918 0.552412,0.967405 0.671062,4.698607 0.11884,3.737174 0.15112,3.962545 0.31747,2.216522 0.75148,-7.887788 6.56712,-14.1778469 15.077023,-16.3069409 5.08638,-1.272564 11.48827,-1.516607 14.23883,-0.542791 3.84603,1.361661 6.38321,5.093603 6.40458,9.4204989 0.0308,6.239179 -3.77997,10.094131 -9.97646,10.092078 -2.03335,-6.62e-4 -2.92242,-0.163489 -6.08541,-1.114419 -6.29779,-1.893384 -7.97115,-1.730682 -8.254,0.802537 -0.3021,2.705633 1.36594,6.949339 7.32769,18.642684 7.11342,13.952216 9.66596,20.425943 11.01764,27.942771 0.57557,3.200831 0.55987,10.251795 -0.0329,14.787435 -1.52495,11.66767 -5.54844,20.263489 -12.95075,27.668079 -4.46343,4.46479 -8.921863,7.49117 -14.437843,9.80035 l -1.45521,0.6092 4.41875,0.0112 c 5.245543,0.0133 6.780023,0.28382 8.079053,1.42438 1.75913,1.54453 1.90963,2.22841 1.91617,8.70712 l 0.006,5.75468 H 64.468905 22.664735 Z m 45.94586,-25.58984 h 0.88539 V 71.537782 35.025284 h -5.02708 -5.02708 V 71.525693 108.0261 l 1.78593,0.10986 c 0.98227,0.0604 2.84603,0.0658 4.14169,0.0121 1.29566,-0.0538 2.75418,-0.0978 3.24115,-0.0978 z M 53.885745,71.140907 V 35.025284 h -5.02709 -5.02708 v 34.765864 34.765862 l 2.00301,0.73054 c 2.41581,0.8811 6.32066,1.91995 7.32355,1.94836 l 0.72761,0.0206 z m 24.87304,35.469843 c 1.38366,-0.35253 3.37796,-0.96055 4.43177,-1.35116 l 1.91602,-0.7102 V 69.787336 35.025284 h -5.02709 -5.02708 v 36.115623 36.115623 l 0.59531,-0.002 c 0.32743,-0.001 1.7274,-0.29084 3.11107,-0.64337 z M 38.275325,68.082985 V 34.994856 l -1.0986,0.08136 -1.0986,0.08136 -2.07326,6.879167 c -9.35667,31.04573 -8.75591,47.086198 2.14877,57.373118 1.02687,0.968689 1.92432,1.761249 1.99436,1.761249 0.07,0 0.12733,-14.889649 0.12733,-33.088125 z m 55.676132,30.158566 c 9.748233,-10.33366 10.025373,-26.198018 0.98183,-56.204809 l -2.07326,-6.879167 -1.0986,-0.08136 -1.0986,-0.08136 v 33.106147 33.106148 l 0.74789,-0.53255 c 0.41135,-0.2929 1.55468,-1.387779 2.54074,-2.433049 z"
       id="path5617"
       sodipodi:nodetypes="ccssccccssssscsccsssssssccccccsscccccccssccccccsssssssssssscsscsscccccccccccccccscccccccsscccsccccccccccscccsssscscccccsc" />
  </g>
</svg>
