<?xml version="1.0" encoding="UTF-8" standalone="no"?>
<!-- Created with Inkscape (http://www.inkscape.org/) -->

<svg
   width="118mm"
   height="118mm"
   viewBox="0 0 118 118"
   version="1.1"
   id="svg5"
   inkscape:version="1.1 (c68e22c387, 2021-05-23)"
   sodipodi:docname="Retro-Circle-Bliss-Relaxation.svg"
   xmlns:inkscape="http://www.inkscape.org/namespaces/inkscape"
   xmlns:sodipodi="http://sodipodi.sourceforge.net/DTD/sodipodi-0.dtd"
   xmlns="http://www.w3.org/2000/svg"
   xmlns:svg="http://www.w3.org/2000/svg">
  <sodipodi:namedview
     id="namedview7"
     pagecolor="#505050"
     bordercolor="#eeeeee"
     borderopacity="1"
     inkscape:pageshadow="0"
     inkscape:pageopacity="0"
     inkscape:pagecheckerboard="0"
     inkscape:document-units="mm"
     showgrid="false"
     inkscape:zoom="1.5554293"
     inkscape:cx="74.898937"
     inkscape:cy="276.12956"
     inkscape:window-width="2560"
     inkscape:window-height="1377"
     inkscape:window-x="-8"
     inkscape:window-y="-8"
     inkscape:window-maximized="1"
     inkscape:current-layer="layer1" />
  <defs
     id="defs2" />
  <g
     inkscape:label="Calque 1"
     inkscape:groupmode="layer"
     id="layer1">
    <path
       id="path858"
       style="opacity:1;fill:#ffffff;fill-opacity:1;stroke:none;stroke-width:7.18619;stroke-linecap:round;stroke-linejoin:round;paint-order:stroke fill markers"
       d="M 59.023086,1.3553725 A 57.664947,57.664947 0 0 0 1.35839,59.020585 57.664947,57.664947 0 0 0 3.0957526,72.969087 H 114.95094 A 57.664947,57.664947 0 0 0 116.6883,59.020585 57.664947,57.664947 0 0 0 59.023086,1.3553725 Z M 3.5174323,74.585011 a 57.664947,57.664947 0 0 0 1.6226393,4.510318 H 112.90662 a 57.664947,57.664947 0 0 0 1.62264,-4.510318 z m 2.2282864,6.193936 a 57.664947,57.664947 0 0 0 3.2240934,6.495211 H 109.07688 a 57.664947,57.664947 0 0 0 3.22409,-6.495211 z m 4.6741343,8.90075 a 57.664947,57.664947 0 0 0 6.603214,8.419639 h 84.000563 a 57.664947,57.664947 0 0 0 6.60321,-8.419639 z m 9.201505,11.065993 a 57.664947,57.664947 0 0 0 14.060124,9.86297 h 50.683726 a 57.664947,57.664947 0 0 0 14.060125,-9.86297 z m 23.157759,13.47153 a 57.664947,57.664947 0 0 0 16.243969,2.46807 57.664947,57.664947 0 0 0 16.244488,-2.46807 z" />
  </g>
</svg>
