<?xml version="1.0" encoding="UTF-8" standalone="no"?>
<!-- Created with Inkscape (http://www.inkscape.org/) -->

<svg
   width="137mm"
   height="107mm"
   viewBox="0 0 137 107"
   version="1.1"
   id="svg5"
   inkscape:version="1.1 (c68e22c387, 2021-05-23)"
   sodipodi:docname="Bowl-Bliss-Relaxation.svg"
   xmlns:inkscape="http://www.inkscape.org/namespaces/inkscape"
   xmlns:sodipodi="http://sodipodi.sourceforge.net/DTD/sodipodi-0.dtd"
   xmlns="http://www.w3.org/2000/svg"
   xmlns:svg="http://www.w3.org/2000/svg">
  <sodipodi:namedview
     id="namedview7"
     pagecolor="#505050"
     bordercolor="#eeeeee"
     borderopacity="1"
     inkscape:pageshadow="0"
     inkscape:pageopacity="0"
     inkscape:pagecheckerboard="0"
     inkscape:document-units="mm"
     showgrid="false"
     inkscape:zoom="0.77771465"
     inkscape:cx="-125.36732"
     inkscape:cy="252.66337"
     inkscape:window-width="2560"
     inkscape:window-height="1377"
     inkscape:window-x="-8"
     inkscape:window-y="-8"
     inkscape:window-maximized="1"
     inkscape:current-layer="layer1" />
  <defs
     id="defs2" />
  <g
     inkscape:label="Calque 1"
     inkscape:groupmode="layer"
     id="layer1">
    <path
       id="path1192"
       style="opacity:1;fill:#ffffff;fill-opacity:1;stroke-width:3.97801;stroke-linecap:round;stroke-linejoin:round"
       d="m 124.14473,3.4404362 c -3.48397,0.023374 -6.61407,1.3869953 -6.61407,1.3869953 L 98.321497,33.216913 A 61.832473,16.750881 0 0 0 64.384034,30.457391 61.832473,16.750881 0 0 0 2.6203625,46.638834 l -0.01447,-0.0021 c 0,0 -0.0093,0.112088 -0.020153,0.287837 a 61.832473,16.750881 0 0 0 -0.034107,0.282671 61.832473,16.750881 0 0 0 0.017571,0.145727 c -0.1724263,4.223602 0.088051,28.110603 26.7709755,43.639197 3.967554,2.308989 8.042979,4.042354 12.124325,5.320607 0.223543,1.318627 0.967983,2.968222 3.211689,3.580143 3.479073,0.948834 7.836713,2.313464 16.837732,2.514574 0.132241,0.005 0.264329,0.01 0.40101,0.0124 11.847105,0.21311 18.065681,-1.19599 22.037931,-2.26756 2.15182,-0.580489 2.878577,-2.167163 3.093866,-3.500044 4.178162,-1.249561 8.35066,-2.989318 12.408029,-5.350579 29.348569,-17.079904 26.755469,-44.38747 26.755469,-44.38747 l -0.005,5.16e-4 a 61.832473,16.750881 0 0 0 -8.44341,-8.142137 L 133.94016,14.994221 C 133.84816,9.6944768 131.81394,6.4752729 129.51201,4.8956136 127.89174,3.7837405 125.96983,3.4281617 124.1449,3.4404052 Z M 64.298766,32.745108 a 57.324741,14.246133 0 0 1 32.627983,2.533179 l -5.884913,8.697658 15.890504,10.713043 9.33018,-13.713375 a 57.324741,14.246133 0 0 1 5.36143,6.015654 57.324741,14.246133 0 0 1 -16.24139,9.934792 l -15.865695,-10.695988 -2.36678,3.49798 12.557374,8.465632 a 57.324741,14.246133 0 0 1 -3.846277,0.689363 L 85.624595,51.982176 79.717463,60.71136 A 57.324741,14.246133 0 0 1 64.298766,61.237425 57.324741,14.246133 0 0 1 6.9741023,46.991267 57.324741,14.246133 0 0 1 64.298766,32.745108 Z" />
  </g>
</svg>
